<svg width="270" height="60" fill="none" xmlns="http://www.w3.org/2000/svg"><path fill-rule="evenodd" clip-rule="evenodd" d="M90 0v60H0V0h90ZM48 16H30v6h12v22h6V16ZM36 28h-6v16h6V28Zm24-12h-6v28h6V16Z" fill="#0E6CDD"/><path d="M270 0H100v60h170V0Z" fill="#FFCA00"/><path d="M131.008 20.042 125.87 27h-1.512v-9.8h1.722v6.972l5.138-6.972h1.512V27h-1.722v-6.958ZM143.356 27h-1.708v-4.186h-4.48V27h-1.722v-9.8h1.722v4.004h4.48V17.2h1.708V27Zm4.673-8.19h-3.178V17.2h8.078v1.61h-3.178V27h-1.722v-8.19ZM160.232 27h-5.81v-9.8h5.67v1.61h-3.948v2.436h3.528v1.61h-3.528v2.534h4.088V27Zm3.965-3.542V27h-1.722v-9.8c.411 0 .854-.005 1.33-.014.486-.01.971-.014 1.456-.014.691 0 1.288.089 1.792.266.514.168.91.406 1.19.714.28.299.486.63.616.994.131.355.196.747.196 1.176a3.02 3.02 0 0 1-.952 2.254c-.625.616-1.502.924-2.632.924-.569 0-.994-.014-1.274-.042Zm1.232-4.676-1.232.028v3.01c.495.047.901.07 1.218.07.551 0 .99-.135 1.316-.406.336-.27.504-.663.504-1.176 0-1.017-.602-1.526-1.806-1.526ZM170.621 27h-1.736l4.144-9.828h1.512L178.685 27h-1.834l-1.022-2.506h-4.186L170.621 27Zm4.55-4.116-1.428-3.486-1.442 3.486h2.87ZM181.875 27h-1.722v-9.8h1.722v4.648l3.864-4.648h2.072l-4.032 4.564L188.063 27h-2.184l-4.004-5.054V27Zm9.562-8.19h-3.178V17.2h8.078v1.61h-3.178V27h-1.722v-8.19Zm13.044 1.232L199.343 27h-1.512v-9.8h1.722v6.972l5.138-6.972h1.512V27h-1.722v-6.958Zm4.438 6.944v-9.758a61.3 61.3 0 0 1 2.828-.07c1.082 0 1.89.215 2.422.644.532.43.798 1.022.798 1.778 0 1.055-.467 1.797-1.4 2.226v.028c.532.14.952.406 1.26.798.308.383.462.877.462 1.484 0 .952-.327 1.68-.98 2.184-.654.504-1.54.756-2.66.756s-2.03-.023-2.73-.07Zm2.94-4.2h-1.218v2.59c.438.047.816.07 1.134.07 1.194 0 1.792-.471 1.792-1.414 0-.41-.15-.719-.448-.924-.299-.215-.719-.322-1.26-.322Zm-.14-4.018c-.411 0-.77.014-1.078.042v2.478h1.162c.438 0 .788-.112 1.05-.336.27-.224.406-.546.406-.966 0-.392-.136-.69-.406-.896-.271-.215-.649-.322-1.134-.322ZM225.469 27h-1.708v-4.186h-4.48V27h-1.722v-9.8h1.722v4.004h4.48V17.2h1.708V27Zm1.985-4.9c0-1.428.476-2.627 1.428-3.598.971-.97 2.194-1.456 3.668-1.456 1.475 0 2.693.467 3.654 1.4.971.943 1.456 2.16 1.456 3.654 0 1.465-.485 2.674-1.456 3.626-.97.952-2.188 1.428-3.654 1.428-1.474 0-2.692-.467-3.654-1.4-.961-.933-1.442-2.151-1.442-3.654Zm1.82 0c0 .99.313 1.81.938 2.464.626.653 1.405.98 2.338.98 1.008 0 1.806-.327 2.394-.98.598-.653.896-1.475.896-2.464 0-.999-.317-1.825-.952-2.478-.634-.644-1.414-.966-2.338-.966-.942 0-1.726.322-2.352.966-.616.644-.924 1.47-.924 2.478Zm16.189 4.9h-5.81v-9.8h5.67v1.61h-3.948v2.436h3.528v1.61h-3.528v2.534h4.088V27ZM124.834 44h-1.736l4.144-9.828h1.512L132.898 44h-1.834l-1.022-2.506h-4.186L124.834 44Zm4.55-4.116-1.428-3.486-1.442 3.486h2.87ZM136.088 44h-1.722v-9.8h5.53v1.61h-3.808V44Zm11.184 0h-5.81v-9.8h5.67v1.61h-3.948v2.436h3.528v1.61h-3.528v2.534h4.088V44Zm10.152 0h-1.708v-4.186h-4.48V44h-1.722v-9.8h1.722v4.004h4.48V34.2h1.708V44Zm4.673-8.19h-3.178V34.2h8.078v1.61h-3.178V44h-1.722v-8.19Zm12.747 5.95.658 1.288c-.308.327-.752.593-1.33.798a5.289 5.289 0 0 1-1.806.308c-1.494 0-2.712-.462-3.654-1.386-.934-.924-1.4-2.147-1.4-3.668 0-1.456.443-2.665 1.33-3.626.877-.952 2.104-1.428 3.682-1.428 1.25 0 2.244.331 2.982.994l-.77 1.274a3.921 3.921 0 0 0-2.212-.658c-.934 0-1.699.313-2.296.938-.598.625-.896 1.46-.896 2.506 0 1.027.312 1.857.938 2.492.634.635 1.451.952 2.45.952.858 0 1.633-.261 2.324-.784Zm4.329-5.95h-3.178V34.2h8.078v1.61h-3.178V44h-1.722v-8.19Zm6.394 8.176v-9.758a61.333 61.333 0 0 1 2.828-.07c1.083 0 1.89.215 2.422.644.532.43.798 1.022.798 1.778 0 1.055-.467 1.797-1.4 2.226v.028c.532.14.952.406 1.26.798.308.383.462.877.462 1.484 0 .952-.327 1.68-.98 2.184-.653.504-1.54.756-2.66.756s-2.03-.023-2.73-.07Zm2.94-4.2h-1.218v2.59c.439.047.817.07 1.134.07 1.195 0 1.792-.471 1.792-1.414 0-.41-.149-.719-.448-.924-.299-.215-.719-.322-1.26-.322Zm-.14-4.018c-.411 0-.77.014-1.078.042v2.478h1.162c.439 0 .789-.112 1.05-.336.271-.224.406-.546.406-.966 0-.392-.135-.69-.406-.896-.271-.215-.649-.322-1.134-.322Zm5.113 3.332c0-1.428.476-2.627 1.428-3.598.97-.97 2.193-1.456 3.668-1.456 1.474 0 2.692.467 3.654 1.4.97.943 1.456 2.16 1.456 3.654 0 1.465-.486 2.674-1.456 3.626-.971.952-2.189 1.428-3.654 1.428-1.475 0-2.693-.467-3.654-1.4-.962-.933-1.442-2.151-1.442-3.654Zm1.82 0c0 .99.312 1.81.938 2.464.625.653 1.404.98 2.338.98 1.008 0 1.806-.327 2.394-.98.597-.653.896-1.475.896-2.464 0-.999-.318-1.825-.952-2.478-.635-.644-1.414-.966-2.338-.966-.943 0-1.727.322-2.352.966-.616.644-.924 1.47-.924 2.478Z" fill="#fff"/></svg>